<?xml version="1.0" encoding="utf-8"?>
<!-- Generator: Adobe Illustrator 17.1.0, SVG Export Plug-In . SVG Version: 6.00 Build 0)  -->
<!DOCTYPE svg PUBLIC "-//W3C//DTD SVG 1.1//EN" "http://www.w3.org/Graphics/SVG/1.1/DTD/svg11.dtd">
<svg version="1.1" id="Layer_1" xmlns="http://www.w3.org/2000/svg" xmlns:xlink="http://www.w3.org/1999/xlink" x="0px" y="0px"
	 width="503.3px" height="582.8px" viewBox="0 0 503.3 582.8" enable-background="new 0 0 503.3 582.8" xml:space="preserve">
<rect x="-234.3" y="-115" display="none" fill="#E6E7E8" stroke="#DEDDDD" stroke-miterlimit="10" width="1000" height="1000"/>
<g id="Ghost">
	<g>
		<defs>
			<path id="SVGID_1_" d="M501.8,553.2c0,138.1-111.9,250-250,250l0,0c-138.1,0-250-111.9-250-250v-300c0-138.1,111.9-250,250-250
				l0,0c138.1,0,250,111.9,250,250V553.2z"/>
		</defs>
		<clipPath id="SVGID_2_">
			<use xlink:href="#SVGID_1_"  overflow="visible"/>
		</clipPath>
		<g clip-path="url(#SVGID_2_)">
			<polygon fill="#FFFFFF" points="612.9,577.8 550.3,542.5 500.5,582.5 450.6,542.5 400.8,582.5 351,542.5 301.1,582.5 
				251.3,542.5 201.5,582.5 151.6,542.5 101.8,582.5 52,542.5 2.2,582.5 -47.7,542.5 -97.5,582.5 -134.5,547.1 -167.4,520.8 
				-127.4,479.1 -167.4,437.4 -127.4,395.7 -167.4,354 -127.4,312.3 -167.4,270.6 -127.4,228.9 -167.4,187.2 -127.4,145.5 
				-167.4,103.8 -127.4,62.2 -167.4,20.5 -127.4,-21.2 -160.2,-78.3 -97.5,-42.9 -47.7,-82.9 2.1,-42.9 52,-82.9 101.8,-42.9 
				151.6,-82.9 201.4,-42.9 251.3,-82.9 301.1,-42.9 350.9,-82.9 400.8,-42.9 450.6,-82.9 500.4,-42.9 550.3,-82.9 587.3,-47.6 
				620.1,-21.3 580.1,20.4 620.1,62.1 580.1,103.8 620.1,145.5 580.1,187.2 620.1,228.9 580.1,270.6 620.1,312.3 580.1,354 
				620.1,395.7 580.1,437.4 620.1,479.1 580.3,523.4 			"/>
			<polygon fill="none" stroke="#CCCCCC" stroke-miterlimit="10" points="612.9,577.8 550.3,542.5 500.5,582.5 450.6,542.5 
				400.8,582.5 351,542.5 301.1,582.5 251.3,542.5 201.5,582.5 151.6,542.5 101.8,582.5 52,542.5 2.2,582.5 -47.7,542.5 
				-97.5,582.5 -134.5,547.1 -167.4,520.8 -127.4,479.1 -167.4,437.4 -127.4,395.7 -167.4,354 -127.4,312.3 -167.4,270.6 
				-127.4,228.9 -167.4,187.2 -127.4,145.5 -167.4,103.8 -127.4,62.2 -167.4,20.5 -127.4,-21.2 -160.2,-78.3 -97.5,-42.9 
				-47.7,-82.9 2.1,-42.9 52,-82.9 101.8,-42.9 151.6,-82.9 201.4,-42.9 251.3,-82.9 301.1,-42.9 350.9,-82.9 400.8,-42.9 
				450.6,-82.9 500.4,-42.9 550.3,-82.9 587.3,-47.6 620.1,-21.3 580.1,20.4 620.1,62.1 580.1,103.8 620.1,145.5 580.1,187.2 
				620.1,228.9 580.1,270.6 620.1,312.3 580.1,354 620.1,395.7 580.1,437.4 620.1,479.1 580.3,523.4 			"/>
		</g>
		<use xlink:href="#SVGID_1_"  overflow="visible" fill="none" stroke="#CCCCCC" stroke-miterlimit="10"/>
	</g>
	<circle stroke="#CCCCCC" stroke-miterlimit="10" cx="203.9" cy="243.5" r="37.5"/>
	<circle stroke="#CCCCCC" stroke-miterlimit="10" cx="300.9" cy="243.5" r="37.5"/>
</g>
</svg>
